<svg xmlns="http://www.w3.org/2000/svg" version="1.1" xmlns:xlink="http://www.w3.org/1999/xlink" width="1024" height="1024"><svg xmlns="http://www.w3.org/2000/svg" version="1.1" xmlns:xlink="http://www.w3.org/1999/xlink" width="1024" height="1024"><svg version="1.0" xmlns="http://www.w3.org/2000/svg" xmlns:xlink="http://www.w3.org/1999/xlink" x="0px" y="0px" viewBox="0 0 1024 1024" style="enable-background:new 0 0 1024 1024;" xml:space="preserve">
<style type="text/css">
	.st0{fill:#22293F;}
	.st1{opacity:0.25;fill:#FFFFFF;}
	.st2{fill:#FFFFFF;stroke:#FFFFFF;stroke-miterlimit:10;}
</style>
<g id="Layer_1">
	<path class="st0" d="M890.31,1024H133.69C59.86,1024,0,964.14,0,890.31l0-756.62C0,59.86,59.86,0,133.69,0l756.62,0
		C964.14,0,1024,59.86,1024,133.69v756.62C1024,964.14,964.14,1024,890.31,1024z"></path>
</g>
<g id="Layer_2">
	<path class="st1" d="M524.72,883.02l-324.7-185.8c-7.93-4.65-12.97-14.47-12.97-25.25v-320.9c0-10.79,5.06-20.63,13.01-25.27
		l324.7-184.85c15.15-8.85,32.66,4.69,32.66,25.27v691.55C557.42,878.38,539.88,891.92,524.72,883.02z"></path>
	<path class="st1" d="M616.67,839.02L203.81,695.96c-10.01-3.8-16.76-14.51-16.76-26.57v-315.8c0-12.05,6.74-22.76,16.73-26.56
		l412.86-149.28c15.83-6.03,32.18,7.46,32.18,26.56v608.14C648.82,831.54,632.5,845.03,616.67,839.02z"></path>
	<path class="st1" d="M692.32,806.5L205.18,694.95c-10.66-3.15-18.13-14.32-18.13-27.14V355.56c0-12.99,7.67-24.27,18.52-27.25
		l487.14-123.25c15.09-4.14,29.55,9.19,29.55,27.25v547.05C722.26,797.61,707.51,810.98,692.32,806.5z"></path>
	<path class="st1" d="M764.74,774.22l-558.29-77.35c-11.23-2.44-19.39-14.02-19.39-27.53V359.42c0-13.35,7.97-24.84,19.03-27.45
		L764.38,231.4c14.64-3.46,28.3,9.79,28.3,27.45v487.83C792.68,764.17,779.28,777.38,764.74,774.22z"></path>
	<path class="st1" d="M808.57,747.24l-600.81-52.04c-11.76-1.45-20.7-13.48-20.7-27.85V361.36c0-14.2,8.74-26.15,20.34-27.8
		l603.85-75.23c13.68-1.95,25.7,11.05,25.7,27.8l-3.04,433.26C833.91,735.97,822.13,748.91,808.57,747.24z"></path>
	<path class="st2" d="M612.14,204.3"></path>
</g>
</svg></svg><style>@media (prefers-color-scheme: light) { :root { filter: none; } }
@media (prefers-color-scheme: dark) { :root { filter: none; } }
</style></svg>