<?xml version="1.0" encoding="UTF-8"?>
<svg id="Layer_1" data-name="Layer 1" xmlns="http://www.w3.org/2000/svg" viewBox="0 0 2688 1240.78">
  <defs>
    <style>
      .cls-1 {
        fill: #fff;
      }

      .cls-2 {
        isolation: isolate;
      }
    </style>
  </defs>
  <g id="Layer_2" data-name="Layer 2">
    <path class="cls-1" d="M270.29,317.1v289.21H0v-139.05c0-8.77,3.78-16.74,9.72-20.52l236.2-150.15c11.31-7.19,24.38,3.8,24.38,20.52Z"/>
    <path class="cls-1" d="M270.29,680.08v263.83c0,16.75-13.09,27.75-24.41,20.52L9.68,813.49c-5.92-3.77-9.68-11.75-9.68-20.51v-112.9h270.29Z"/>
    <path class="cls-1" d="M374.07,345.1v261.2h-77.82v-245.21l55.16-35.07c10.53-6.7,22.67,3.53,22.67,19.08Z"/>
    <path class="cls-1" d="M374.07,680.08v252.49c0,15.58-12.17,25.8-22.69,19.07l-55.13-35.24v-236.32h77.82Z"/>
    <path class="cls-1" d="M474.04,680.08v230.59c0,14.38-11.22,23.8-20.93,17.59l-53.09-33.92v-214.25h74.01Z"/>
    <path class="cls-1" d="M474.04,363.81v251.2h-74.02v-235.05l53.12-33.77c9.69-6.18,20.9,3.26,20.9,17.61Z"/>
    <path class="cls-1" d="M569.07,680.08v205.43c0,12.9-10.07,21.37-18.78,15.79l-50.3-32.14v-189.09h69.08Z"/>
    <path class="cls-1" d="M569.07,387.96v227.04h-69.08v-210.85l50.33-31.98c8.7-5.55,18.75,2.92,18.75,15.79Z"/>
    <path class="cls-1" d="M655.75,408.54v196.4h-60.73v-178.05l45.7-32.55c6.97-4.97,15.03,2.64,15.03,14.2Z"/>
    <path class="cls-1" d="M655.75,678.72v183.37c0,11.58-8.09,19.18-15.07,14.18l-45.68-32.71v-164.84h60.74Z"/>
    <rect class="cls-1" y="550.29" width="270.3" height="161.58"/>
    <rect class="cls-1" x="400.01" y="523.43" width="74.02" height="208.81"/>
    <rect class="cls-1" x="296.24" y="523.43" width="77.82" height="244.33"/>
    <rect class="cls-1" x="499.99" y="553.76" width="69.08" height="181.95"/>
    <rect class="cls-1" x="595.02" y="564.15" width="60.73" height="154.22"/>
  </g>
  <g class="cls-2">
    <path class="cls-1" d="M843.85,311.1h144.75v54.13h-89.63v52.94h89.63v53.34h-89.63v131.27h-55.12v-291.68Z"/>
    <path class="cls-1" d="M1132.24,311.1h56.31l112.18,291.68h-57.7l-22.82-60.08h-119.02l-23.73,60.08h-57.7l112.48-291.68ZM1160.74,388.43l-39.13,100.14h78.04l-38.9-100.14Z"/>
    <path class="cls-1" d="M1344.97,311.1h55.12v291.68h-55.12v-291.68Z"/>
    <path class="cls-1" d="M1471.6,311.1h58.82c32.22,0,55.16,2.87,68.82,8.63,13.67,5.75,24.66,15.3,32.98,28.65,8.32,13.35,12.48,29.15,12.48,47.39,0,19.17-4.6,35.2-13.78,48.08-9.19,12.89-23.03,22.64-41.54,29.25l69.1,129.68h-60.7l-65.59-123.53h-5.08v123.53h-55.52v-291.68ZM1527.12,425.12h17.4c17.66,0,29.81-2.32,36.47-6.96,6.66-4.64,9.98-12.33,9.98-23.08,0-6.36-1.65-11.9-4.94-16.61-3.3-4.71-7.71-8.09-13.24-10.15-5.53-2.06-15.68-3.09-30.44-3.09h-15.22v59.88Z"/>
    <path class="cls-1" d="M1871.4,383.08h-53.34c2.78-21.55,10.51-38.87,23.2-51.95,17.71-18.24,39.99-27.36,66.82-27.36,23.92,0,43.99,7.6,60.18,22.8,16.19,15.2,24.29,33.25,24.29,54.13,0,12.96-3.54,24.79-10.61,35.49-7.07,10.71-17.35,19.37-30.83,25.97,17.71,5.29,31.56,14.51,41.54,27.66,9.98,13.16,14.97,28.65,14.97,46.5,0,26.17-9.65,48.35-28.95,66.53-19.3,18.18-43.89,27.27-73.76,27.27-28.29,0-51.36-8.56-69.2-25.68-17.85-17.12-27.63-40.42-29.35-69.9h54.93c2.38,15.07,7.63,26.27,15.76,33.61,8.13,7.34,18.41,11.01,30.83,11.01s23.69-4.16,32.22-12.49c8.53-8.33,12.79-18.51,12.79-30.54,0-13.22-5.75-24.39-17.25-33.51-11.5-9.12-28.09-13.81-49.77-14.08v-47.59c13.35-1.06,23.3-3.14,29.84-6.25,6.54-3.1,11.63-7.37,15.27-12.79,3.63-5.42,5.45-11.17,5.45-17.25,0-7.93-2.77-14.51-8.33-19.73-5.55-5.22-12.83-7.83-21.81-7.83-7.93,0-15.14,2.41-21.61,7.24-6.48,4.83-10.91,11.07-13.28,18.74Z"/>
    <path class="cls-1" d="M2060.49,311.1h65.78c42.4,0,73.9,5.25,94.5,15.76,20.6,10.51,37.58,27.6,50.92,51.26,13.34,23.67,20.01,51.29,20.01,82.88,0,22.48-3.73,43.13-11.19,61.96-7.46,18.84-17.77,34.47-30.91,46.9-13.14,12.43-27.37,21.02-42.69,25.78-15.32,4.76-41.87,7.14-79.64,7.14h-66.77v-291.68ZM2115.62,364.64v184.01h25.78c25.38,0,43.79-2.91,55.22-8.73,11.43-5.82,20.79-15.61,28.06-29.38,7.27-13.76,10.91-30.7,10.91-50.82,0-30.96-8.66-54.98-25.98-72.06-15.6-15.35-40.65-23.03-75.15-23.03h-18.84Z"/>
  </g>
  <g class="cls-2">
    <path class="cls-1" d="M842.86,657.74h56.31v110.05h97.36v-110.05h56.12v291.68h-56.12v-127.9h-97.36v127.9h-56.31v-291.68Z"/>
    <path class="cls-1" d="M1124.75,657.74h159.22v54.33h-104.1v52.75h104.1v53.34h-104.1v76.74h104.1v54.53h-159.22v-291.68Z"/>
    <path class="cls-1" d="M1344.77,657.74h58.82c32.22,0,55.16,2.87,68.82,8.63s24.66,15.3,32.98,28.65c8.32,13.35,12.48,29.15,12.48,47.39,0,19.17-4.59,35.2-13.78,48.08-9.19,12.89-23.03,22.64-41.54,29.25l69.1,129.68h-60.69l-65.59-123.53h-5.08v123.53h-55.52v-291.68ZM1400.29,771.75h17.4c17.66,0,29.81-2.32,36.47-6.96,6.66-4.64,9.98-12.33,9.98-23.08,0-6.36-1.65-11.9-4.94-16.61-3.3-4.71-7.71-8.09-13.24-10.15-5.53-2.06-15.68-3.09-30.44-3.09h-15.22v59.88Z"/>
    <path class="cls-1" d="M1577.89,657.74h55.12v291.68h-55.12v-291.68Z"/>
    <path class="cls-1" d="M1672,657.74h161.21v54.73h-53.14v236.95h-56.31v-236.95h-51.75v-54.73Z"/>
    <path class="cls-1" d="M1965.54,657.74h56.31l112.18,291.68h-57.7l-22.82-60.08h-119.02l-23.73,60.08h-57.7l112.48-291.68ZM1994.04,735.07l-39.13,100.14h78.04l-38.9-100.14Z"/>
    <path class="cls-1" d="M2451.52,705.33l-39.1,38.67c-24.74-26.17-53.58-39.26-86.53-39.26-28.71,0-52.76,9.52-72.14,28.55-19.38,19.04-29.07,42.17-29.07,69.4s10.06,52.02,30.17,71.58c20.11,19.57,44.93,29.35,74.44,29.35,19.19,0,35.37-4.03,48.53-12.1,13.17-8.06,23.79-20.69,31.86-37.87h-84.47v-52.15h146.73l.4,12.29c0,25.51-6.61,49.71-19.83,72.57-13.22,22.87-30.34,40.32-51.36,52.35-21.02,12.03-45.67,18.04-73.96,18.04-30.27,0-57.27-6.58-81-19.73-23.73-13.15-42.5-31.89-56.31-56.21-13.81-24.32-20.72-50.56-20.72-78.72,0-38.6,12.75-72.18,38.27-100.73,30.27-33.97,69.66-50.96,118.18-50.96,25.38,0,49.11,4.69,71.19,14.08,18.64,7.93,36.88,21.55,54.73,40.85Z"/>
    <path class="cls-1" d="M2528.78,657.74h159.22v54.33h-104.1v52.75h104.1v53.34h-104.1v76.74h104.1v54.53h-159.22v-291.68Z"/>
  </g>
</svg>