<?xml version="1.0" encoding="utf-8"?>
<!-- Generator: Adobe Illustrator 16.0.3, SVG Export Plug-In . SVG Version: 6.00 Build 0)  -->
<!DOCTYPE svg PUBLIC "-//W3C//DTD SVG 1.1//EN" "http://www.w3.org/Graphics/SVG/1.1/DTD/svg11.dtd">
<svg version="1.1" id="Hochschule_Mainz_Logo" xmlns="http://www.w3.org/2000/svg" xmlns:xlink="http://www.w3.org/1999/xlink"
	 x="0px" y="0px" width="610px" height="196.96px" viewBox="0 0 610 196.96" enable-background="new 0 0 610 196.96"
	 xml:space="preserve">
<path fill="#0080C9" d="M5,42.275c0,0,0-3.709,3.314-5.366L70.36,5.859c0,0,3.318-1.664,6.79-0.361l130.403,48.955
	c0,0,3.477,1.3,3.477,5.01v95.701c0,0,0,3.71-3.318,5.367l-62.042,31.054c0,0-3.318,1.659-3.318-2.044v-52.739
	c0,0,0-3.71-3.318-2.046l-62.042,31.049c0,0-3.314,1.662-3.314-2.046V111.02c0,0,0-3.707-3.318-2.046l-62.046,31.05
	c0,0-3.314,1.663-3.314-2.042V42.275z"/>
<path fill="#1D1D1B" d="M603.706,89.131c0.73,0,1.294-0.559,1.294-1.294V86.03c0-0.735-0.563-1.294-1.294-1.294H593.54l10.21-21.879
	c0.3-0.648,0.344-1.252,0.344-1.338v-1.766c0-0.73-0.56-1.29-1.294-1.29h-12.749c-0.727,0-1.29,0.56-1.29,1.29v1.811
	c0,0.73,0.604,1.293,1.338,1.293h8.789l-10.215,21.965c-0.255,0.559-0.343,0.734-0.343,1.465v1.55c0,0.735,0.559,1.294,1.294,1.294
	H603.706z M581.249,89.131c0.73,0,1.289-0.559,1.289-1.294V59.754c0-0.73-0.559-1.29-1.289-1.29h-1.809
	c-0.735,0-1.294,0.56-1.294,1.29v19.297c0,1.122,0.344,4.739,0.388,5.168h-1.03c-0.048-0.429-0.651-4.046-0.994-5.168l-5.813-19.771
	c-0.177-0.599-0.735-0.816-1.25-0.816h-4.955c-0.73,0-1.334,0.56-1.334,1.29v28.083c0,0.735,0.56,1.294,1.294,1.294h1.809
	c0.73,0,1.294-0.559,1.294-1.294V68.5c0-1.076-0.348-4.695-0.387-5.127h1.029c0.044,0.432,0.643,4.051,0.99,5.127L575,88.27
	c0.176,0.604,0.735,0.861,1.25,0.861H581.249z M556.314,89.131c0.734,0,1.294-0.559,1.294-1.294V86.03
	c0-0.735-0.56-1.294-1.294-1.294h-4.867V62.857h4.392c0.735,0,1.294-0.563,1.294-1.293v-1.811c0-0.73-0.559-1.29-1.294-1.29h-13.176
	c-0.734,0-1.294,0.56-1.294,1.29v1.811c0,0.73,0.56,1.293,1.294,1.293h4.388v21.879h-4.863c-0.73,0-1.289,0.559-1.289,1.294v1.807
	c0,0.735,0.559,1.294,1.289,1.294H556.314z M529.813,75.134h-7.41l3.19-12.276h1.034L529.813,75.134z M534.896,77.156
	c0-0.044,0-0.13-0.044-0.256l-4.607-17.49c-0.172-0.643-0.69-0.946-1.294-0.946h-5.686c-0.599,0-1.118,0.304-1.289,0.946
	l-4.612,17.49c-0.044,0.126-0.044,0.212-0.044,0.256v10.681c0,0.735,0.563,1.294,1.294,1.294h1.853c0.735,0,1.25-0.559,1.25-1.294
	v-8.309h8.783v8.309c0,0.735,0.56,1.294,1.294,1.294h1.809c0.735,0,1.294-0.559,1.294-1.294V77.156z M511.035,89.131
	c0.726,0,1.289-0.559,1.289-1.294V59.754c0-0.73-0.563-1.29-1.289-1.29h-4.955c-0.56,0-1.078,0.304-1.206,0.816l-2.456,10.122
	c-0.211,0.82-0.431,2.889-0.475,3.361c-0.04-0.473-0.256-2.541-0.472-3.361l-2.455-10.122c-0.128-0.513-0.647-0.816-1.206-0.816
	h-4.951c-0.734,0-1.293,0.56-1.293,1.29v28.083c0,0.735,0.519,1.294,1.293,1.294h1.805c0.73,0,1.294-0.559,1.294-1.294V68.5
	c0-1.076-0.3-4.654-0.348-5.083h0.994c0.044,0.429,0.472,4.007,0.774,5.083l2.201,7.494c0.167,0.605,0.687,0.86,1.245,0.86h2.24
	c0.559,0,1.078-0.255,1.249-0.86l2.192-7.494c0.304-1.076,0.734-4.654,0.778-5.083h0.99c-0.039,0.429-0.343,4.007-0.343,5.083
	v19.337c0,0.735,0.559,1.294,1.294,1.294H511.035z M468.695,89.131c0.73,0,1.289-0.559,1.289-1.294V86.03
	c0-0.735-0.559-1.294-1.289-1.294h-10.126v-8.742h9.175c0.735,0,1.338-0.559,1.338-1.293v-1.807c0-0.735-0.603-1.295-1.338-1.295
	h-9.175v-8.742h10.082c0.734,0,1.333-0.602,1.333-1.293v-1.811c0-0.73-0.599-1.29-1.333-1.29h-13.181c-0.73,0-1.289,0.56-1.289,1.25
	v28.123c0,0.735,0.559,1.294,1.289,1.294H468.695z M446.437,89.131c0.726,0,1.289-0.559,1.289-1.294V86.03
	c0-0.735-0.563-1.294-1.289-1.294h-9.216V59.754c0-0.73-0.563-1.29-1.294-1.29h-1.813c-0.73,0-1.29,0.56-1.29,1.29v28.083
	c0,0.735,0.56,1.294,1.29,1.294H446.437z M417.699,89.604c4.088,0,7.406-3.357,7.406-7.448V59.754c0-0.73-0.559-1.29-1.294-1.29
	h-1.765c-0.73,0-1.289,0.56-1.289,1.29v22.401c0,1.675-1.382,3.054-3.059,3.054h-0.95c-1.682,0-3.059-1.379-3.059-3.054V59.754
	c0-0.73-0.56-1.29-1.294-1.29h-1.761c-0.734,0-1.294,0.56-1.294,1.29v22.401c0,4.091,3.318,7.448,7.407,7.448H417.699z
	 M401.209,89.131c0.735,0,1.294-0.559,1.294-1.294V59.754c0-0.73-0.559-1.29-1.294-1.29H399.4c-0.734,0-1.293,0.56-1.293,1.29V71.6
	h-6.976V59.754c0-0.73-0.563-1.29-1.294-1.29h-1.809c-0.73,0-1.289,0.56-1.289,1.29v28.083c0,0.735,0.559,1.294,1.289,1.294h1.809
	c0.73,0,1.294-0.559,1.294-1.294V75.994h6.976v11.843c0,0.735,0.559,1.294,1.293,1.294H401.209z M372.789,89.604
	c4.137,0,7.495-3.316,7.495-7.448v-1.38c0-0.734-0.56-1.293-1.29-1.293h-1.809c-0.73,0-1.294,0.559-1.294,1.293v1.38
	c0,1.675-1.373,3.054-3.103,3.054h-1.333c-1.682,0-3.059-1.379-3.059-3.054V65.441c0-1.682,1.377-3.057,3.059-3.057h1.333
	c1.729,0,3.103,1.375,3.103,3.057v0.904c0,0.73,0.563,1.294,1.294,1.294h1.809c0.73,0,1.29-0.563,1.29-1.294v-0.904
	c0-4.093-3.358-7.451-7.495-7.451h-1.333c-4.093,0-7.45,3.358-7.45,7.451v16.714c0,4.132,3.357,7.448,7.45,7.448H372.789z
	 M350.104,89.604c4.137,0,7.45-3.357,7.45-7.448v-1.38c0-9.305-11.847-8.484-11.847-14v-1.334c0-1.682,1.378-3.057,3.059-3.057
	h0.946c1.681,0,3.063,1.375,3.063,3.057v0.904c0,0.73,0.56,1.294,1.29,1.294h1.809c0.73,0,1.294-0.563,1.294-1.294v-0.904
	c0-4.093-3.362-7.451-7.455-7.451h-0.946c-4.088,0-7.45,3.358-7.45,7.451v1.334c0,9.047,11.847,8.011,11.847,14v1.38
	c0,1.675-1.338,3.054-3.059,3.054h-1.726c-1.725,0-3.059-1.379-3.059-3.054v-0.952c0-0.729-0.559-1.287-1.293-1.287h-1.81
	c-0.726,0-1.289,0.559-1.289,1.287v0.952c0,4.091,3.313,7.448,7.45,7.448H350.104z M333.16,89.131c0.73,0,1.294-0.559,1.294-1.294
	V59.754c0-0.73-0.563-1.29-1.294-1.29h-1.809c-0.73,0-1.289,0.56-1.289,1.29V71.6h-6.98V59.754c0-0.73-0.559-1.29-1.289-1.29h-1.813
	c-0.73,0-1.293,0.56-1.293,1.29v28.083c0,0.735,0.563,1.294,1.293,1.294h1.813c0.73,0,1.289-0.559,1.289-1.294V75.994h6.98v11.843
	c0,0.735,0.559,1.294,1.289,1.294H333.16z M304.74,89.604c4.137,0,7.499-3.316,7.499-7.448v-1.38c0-0.734-0.563-1.293-1.294-1.293
	h-1.813c-0.73,0-1.29,0.559-1.29,1.293v1.38c0,1.675-1.377,3.054-3.103,3.054h-1.333c-1.681,0-3.054-1.379-3.054-3.054V65.441
	c0-1.682,1.373-3.057,3.054-3.057h1.333c1.725,0,3.103,1.375,3.103,3.057v0.904c0,0.73,0.559,1.294,1.29,1.294h1.813
	c0.73,0,1.294-0.563,1.294-1.294v-0.904c0-4.093-3.362-7.451-7.499-7.451h-1.333c-4.092,0-7.45,3.358-7.45,7.451v16.714
	c0,4.132,3.358,7.448,7.45,7.448H304.74z M277.597,65.441c0-1.682,1.333-3.057,3.063-3.057h1.285c1.729,0,3.063,1.375,3.063,3.057
	v16.714c0,1.675-1.333,3.054-3.063,3.054h-1.285c-1.729,0-3.063-1.379-3.063-3.054V65.441z M273.205,82.155
	c0,4.091,3.362,7.448,7.455,7.448h1.285c4.097,0,7.455-3.357,7.455-7.448V65.441c0-4.133-3.358-7.451-7.455-7.451h-1.285
	c-4.092,0-7.455,3.318-7.455,7.451V82.155z M265.239,89.131c0.73,0,1.289-0.559,1.289-1.294V59.754c0-0.73-0.559-1.29-1.289-1.29
	h-1.809c-0.735,0-1.293,0.56-1.293,1.29V71.6h-6.98V59.754c0-0.73-0.559-1.29-1.289-1.29h-1.813c-0.73,0-1.289,0.56-1.289,1.29
	v28.083c0,0.735,0.559,1.294,1.289,1.294h1.813c0.73,0,1.289-0.559,1.289-1.294V75.994h6.98v11.843c0,0.735,0.559,1.294,1.293,1.294
	H265.239z"/>
<path fill="#1D1D1B" d="M492.64,107.299c0-0.116-0.079-0.193-0.198-0.193h-12.366c-0.118,0-0.193,0.077-0.193,0.193v27.395
	c0,0.119,0.075,0.199,0.193,0.199h0.934c0.114,0,0.193-0.08,0.193-0.199v-13.072h10.382c0.118,0,0.193-0.076,0.193-0.193v-0.938
	c0-0.111-0.075-0.193-0.193-0.193h-10.382v-11.871h11.239c0.119,0,0.198-0.074,0.198-0.193V107.299z M471.059,129.391
	c0,2.577-2.068,4.646-4.647,4.646h-1.329c-2.579,0-4.647-2.068-4.647-4.646v-16.786c0-2.577,2.068-4.646,4.647-4.646h1.329
	c2.579,0,4.647,2.068,4.647,4.646V129.391z M472.379,112.604c0-3.316-2.649-5.966-5.968-5.966h-1.329
	c-3.318,0-5.972,2.649-5.972,5.966v16.786c0,3.32,2.653,5.973,5.972,5.973h1.329c3.318,0,5.968-2.652,5.968-5.973V112.604z
	 M440.957,107.376c0.079-0.193-0.039-0.271-0.233-0.271h-0.938c-0.114,0-0.193,0.037-0.232,0.119l-5.269,13.459l-5.268-13.459
	c-0.039-0.082-0.118-0.119-0.233-0.119h-0.933c-0.198,0-0.316,0.077-0.237,0.271l6.011,15.3v12.022c0,0.118,0.08,0.194,0.194,0.194
	h0.933c0.119,0,0.193-0.076,0.193-0.194v-12.022L440.957,107.376z M421.91,107.299c0-0.116-0.079-0.193-0.193-0.193h-14.126
	c-0.119,0-0.194,0.077-0.194,0.193v0.934c0,0.119,0.075,0.193,0.194,0.193h6.398v26.268c0,0.119,0.079,0.199,0.198,0.199h0.933
	c0.114,0,0.193-0.08,0.193-0.199v-26.268h6.403c0.114,0,0.193-0.074,0.193-0.193V107.299z M388.148,134.698
	c0,0.118,0.079,0.194,0.197,0.194h13.344c0.118,0,0.197-0.076,0.197-0.194v-0.933c0-0.117-0.079-0.198-0.197-0.198h-6.012v-25.142
	h5.545c0.114,0,0.198-0.074,0.198-0.193v-0.934c0-0.116-0.084-0.193-0.198-0.193h-12.405c-0.124,0-0.198,0.077-0.198,0.193v0.934
	c0,0.119,0.074,0.193,0.198,0.193h5.54v25.142h-6.012c-0.118,0-0.197,0.081-0.197,0.198V134.698z M382.251,128.024
	c0-3.708-2.297-5.542-5.188-7.104c-2.813-1.561-6.795-3.125-6.795-7.026v-1.289c0-2.577,2.108-4.646,4.647-4.646h0.938
	c2.539,0,4.643,2.068,4.643,4.646v0.468c0,0.117,0.084,0.194,0.202,0.194h0.89c0.123,0,0.197-0.077,0.197-0.194v-0.468
	c0-3.316-2.649-5.966-5.932-5.966h-0.938c-3.283,0-5.928,2.649-5.928,5.966v1.289c0,8.08,11.904,6.714,11.904,14.131v1.366
	c0,2.542-2.068,4.646-4.608,4.646h-1.8c-2.534,0-4.603-2.104-4.603-4.646v-0.469c0-0.116-0.08-0.193-0.194-0.193h-0.973
	c-0.118,0-0.193,0.077-0.193,0.193v0.469c0,3.281,2.685,5.973,5.963,5.973h1.8c3.279,0,5.968-2.691,5.968-5.973V128.024z
	 M361.18,119.242c0,2.537-2.068,4.61-4.646,4.61h-5.506v-15.427h5.506c2.578,0,4.646,2.033,4.646,4.611V119.242z M362.5,113.037
	c0-3.28-2.645-5.932-5.967-5.932h-6.632c-0.119,0-0.198,0.077-0.198,0.193v27.395c0,0.119,0.079,0.199,0.198,0.199h0.928
	c0.119,0,0.198-0.08,0.198-0.199v-9.521h5.972l4.022,9.563c0.04,0.076,0.079,0.156,0.233,0.156h0.933
	c0.198,0,0.313-0.156,0.233-0.315l-4.093-9.64c2.421-0.814,4.172-3.041,4.172-5.695V113.037z M342.983,133.766
	c0-0.117-0.08-0.198-0.189-0.198h-11.323v-11.946h10.421c0.114,0,0.198-0.076,0.198-0.193v-0.938c0-0.111-0.084-0.193-0.198-0.193
	h-10.421v-11.871h11.323c0.109,0,0.189-0.074,0.189-0.193v-0.934c0-0.116-0.08-0.193-0.189-0.193H330.34
	c-0.115,0-0.193,0.077-0.193,0.193v27.399c0,0.118,0.078,0.194,0.193,0.194h12.454c0.109,0,0.189-0.076,0.189-0.194V133.766z
	 M323.47,107.341c0.04-0.158-0.044-0.235-0.194-0.235h-0.898c-0.123,0-0.198,0.037-0.233,0.154l-5.664,25.877l-5.659-25.877
	c-0.04-0.117-0.119-0.154-0.233-0.154h-0.902c-0.15,0-0.233,0.077-0.194,0.235l5.937,27.357c0.035,0.118,0.119,0.194,0.233,0.194
	h1.602c0.114,0,0.193-0.076,0.233-0.194L323.47,107.341z M289.98,134.698c0,0.118,0.08,0.194,0.194,0.194h13.352
	c0.11,0,0.193-0.076,0.193-0.194v-0.933c0-0.117-0.083-0.198-0.193-0.198h-6.012v-25.142h5.541c0.115,0,0.194-0.074,0.194-0.193
	v-0.934c0-0.116-0.079-0.193-0.194-0.193h-12.41c-0.119,0-0.193,0.077-0.193,0.193v0.934c0,0.119,0.075,0.193,0.193,0.193h5.541
	v25.142h-6.011c-0.114,0-0.194,0.081-0.194,0.198V134.698z M283.652,107.299c0-0.116-0.079-0.193-0.189-0.193h-0.938
	c-0.079,0-0.194,0.077-0.194,0.193V132.9l-9.409-25.602c-0.044-0.116-0.119-0.193-0.238-0.193h-1.677
	c-0.114,0-0.233,0.077-0.233,0.193v27.399c0,0.118,0.079,0.194,0.193,0.194h0.933c0.119,0,0.198-0.076,0.198-0.194v-25.642
	l9.448,25.68c0.04,0.08,0.079,0.156,0.238,0.156h1.632c0.119,0,0.233-0.117,0.233-0.234V107.299z M263.98,107.299
	c0-0.116-0.079-0.193-0.193-0.193h-0.933c-0.119,0-0.194,0.077-0.194,0.193v22.097c0,2.537-2.073,4.641-4.612,4.641h-0.938
	c-2.535,0-4.607-2.104-4.607-4.641v-22.097c0-0.116-0.079-0.193-0.194-0.193h-0.933c-0.119,0-0.194,0.077-0.194,0.193v22.097
	c0,3.276,2.649,5.968,5.928,5.968h0.938c3.283,0,5.932-2.691,5.932-5.968V107.299z"/>
<path fill="#1D1D1B" d="M553.493,173.79c0-3.71-2.297-5.542-5.192-7.106c-2.808-1.559-6.791-3.123-6.791-7.026v-1.287
	c0-2.579,2.104-4.647,4.647-4.647h0.938c2.535,0,4.643,2.068,4.643,4.647v0.469c0,0.116,0.084,0.193,0.194,0.193h0.897
	c0.118,0,0.193-0.077,0.193-0.193v-0.469c0-3.323-2.649-5.972-5.928-5.972h-0.938c-3.283,0-5.932,2.648-5.932,5.972v1.287
	c0,8.079,11.908,6.716,11.908,14.133v1.364c0,2.539-2.068,4.647-4.612,4.647h-1.795c-2.54,0-4.604-2.108-4.604-4.647v-0.469
	c0-0.116-0.079-0.193-0.198-0.193h-0.973c-0.118,0-0.193,0.077-0.193,0.193v0.469c0,3.281,2.688,5.968,5.968,5.968h1.795
	c3.278,0,5.972-2.687,5.972-5.968V173.79z M533.857,179.527c0-0.117-0.075-0.194-0.198-0.194h-11.318v-11.95h10.421
	c0.118,0,0.193-0.077,0.193-0.193v-0.934c0-0.119-0.075-0.193-0.193-0.193h-10.421v-11.871h11.318c0.123,0,0.198-0.082,0.198-0.193
	v-0.938c0-0.112-0.075-0.193-0.198-0.193h-12.44c-0.124,0-0.198,0.081-0.198,0.193v27.398c0,0.117,0.074,0.194,0.198,0.194h12.44
	c0.123,0,0.198-0.077,0.198-0.194V179.527z M514.226,174.259c0-0.116-0.119-0.235-0.237-0.235h-0.894
	c-0.114,0-0.233,0.119-0.233,0.235v0.896c0,2.539-2.068,4.647-4.607,4.647h-1.364c-2.539,0-4.612-2.108-4.612-4.647V158.37
	c0-2.579,2.073-4.647,4.612-4.647h1.364c2.539,0,4.607,2.068,4.607,4.647v0.427c0,0.117,0.119,0.235,0.233,0.235h0.894
	c0.118,0,0.237-0.118,0.237-0.235v-0.427c0-3.323-2.689-5.972-5.972-5.972h-1.364c-3.283,0-5.933,2.648-5.933,5.972v16.784
	c0,3.281,2.649,5.968,5.933,5.968h1.364c3.282,0,5.972-2.687,5.972-5.968V174.259z M494.162,153.064
	c0-0.116-0.079-0.197-0.193-0.197h-0.933c-0.079,0-0.198,0.081-0.198,0.197v25.602l-9.409-25.602
	c-0.044-0.116-0.118-0.197-0.237-0.197h-1.677c-0.11,0-0.233,0.081-0.233,0.197v27.395c0,0.117,0.084,0.194,0.198,0.194h0.933
	c0.119,0,0.194-0.077,0.194-0.194v-25.641l9.452,25.681c0.04,0.077,0.075,0.154,0.233,0.154h1.637c0.115,0,0.233-0.116,0.233-0.235
	V153.064z M474.953,179.527c0-0.117-0.075-0.194-0.193-0.194H463.44v-11.95h10.421c0.119,0,0.198-0.077,0.198-0.193v-0.934
	c0-0.119-0.079-0.193-0.198-0.193H463.44v-11.871h11.319c0.118,0,0.193-0.082,0.193-0.193v-0.938c0-0.112-0.075-0.193-0.193-0.193
	h-12.445c-0.115,0-0.194,0.081-0.194,0.193v27.398c0,0.117,0.079,0.194,0.194,0.194h12.445c0.118,0,0.193-0.077,0.193-0.194V179.527
	z M441.591,180.459c0,0.117,0.075,0.194,0.193,0.194h13.344c0.118,0,0.193-0.077,0.193-0.194v-0.932
	c0-0.117-0.075-0.194-0.193-0.194h-6.012v-25.142h5.54c0.119,0,0.194-0.082,0.194-0.193v-0.938c0-0.112-0.075-0.193-0.194-0.193
	h-12.405c-0.114,0-0.198,0.081-0.198,0.193v0.938c0,0.111,0.084,0.193,0.198,0.193h5.541v25.142h-6.008
	c-0.118,0-0.193,0.077-0.193,0.194V180.459z M434.906,174.259c0-0.116-0.114-0.235-0.233-0.235h-0.894
	c-0.114,0-0.233,0.119-0.233,0.235v0.896c0,2.539-2.068,4.647-4.607,4.647h-1.368c-2.535,0-4.604-2.108-4.604-4.647V158.37
	c0-2.579,2.068-4.647,4.604-4.647h1.368c2.539,0,4.607,2.068,4.607,4.647v0.427c0,0.117,0.119,0.235,0.233,0.235h0.894
	c0.119,0,0.233-0.118,0.233-0.235v-0.427c0-3.323-2.685-5.972-5.968-5.972h-1.368c-3.279,0-5.928,2.648-5.928,5.972v16.784
	c0,3.281,2.648,5.968,5.928,5.968h1.368c3.283,0,5.968-2.687,5.968-5.968V174.259z M415.274,173.79c0-3.71-2.302-5.542-5.188-7.106
	c-2.813-1.559-6.795-3.123-6.795-7.026v-1.287c0-2.579,2.108-4.647,4.647-4.647h0.938c2.539,0,4.643,2.068,4.643,4.647v0.469
	c0,0.116,0.083,0.193,0.198,0.193h0.893c0.124,0,0.198-0.077,0.198-0.193v-0.469c0-3.323-2.649-5.972-5.932-5.972h-0.938
	c-3.283,0-5.933,2.648-5.933,5.972v1.287c0,8.079,11.904,6.716,11.904,14.133v1.364c0,2.539-2.068,4.647-4.604,4.647h-1.8
	c-2.535,0-4.604-2.108-4.604-4.647v-0.469c0-0.116-0.083-0.193-0.193-0.193h-0.977c-0.114,0-0.194,0.077-0.194,0.193v0.469
	c0,3.281,2.689,5.968,5.968,5.968h1.8c3.279,0,5.968-2.687,5.968-5.968V173.79z M380.812,174.686c0,2.579-2.068,4.647-4.646,4.647
	h-5.506v-25.142h5.506c2.578,0,4.646,2.068,4.646,4.605V174.686z M382.137,158.797c0-3.281-2.654-5.93-5.972-5.93h-6.632
	c-0.124,0-0.198,0.081-0.198,0.193v27.361c0,0.119,0.074,0.231,0.198,0.231h6.632c3.317,0,5.972-2.649,5.972-5.968V158.797z
	 M362.619,179.527c0-0.117-0.079-0.194-0.198-0.194h-11.318v-11.95h10.421c0.119,0,0.193-0.077,0.193-0.193v-0.934
	c0-0.119-0.074-0.193-0.193-0.193h-10.421v-11.871h11.318c0.119,0,0.198-0.082,0.198-0.193v-0.938c0-0.112-0.079-0.193-0.198-0.193
	h-12.445c-0.118,0-0.193,0.081-0.193,0.193v27.398c0,0.117,0.075,0.194,0.193,0.194h12.445c0.119,0,0.198-0.077,0.198-0.194V179.527
	z M329.252,180.459c0,0.117,0.076,0.194,0.194,0.194h13.348c0.109,0,0.189-0.077,0.189-0.194v-0.932c0-0.117-0.08-0.194-0.189-0.194
	h-6.012v-25.142h5.541c0.114,0,0.193-0.082,0.193-0.193v-0.938c0-0.112-0.079-0.193-0.193-0.193h-12.411
	c-0.118,0-0.193,0.081-0.193,0.193v0.938c0,0.111,0.075,0.193,0.193,0.193h5.546v25.142h-6.012c-0.118,0-0.194,0.077-0.194,0.194
	V180.459z M323.743,179.527c0-0.117-0.079-0.194-0.198-0.194h-10.381v-26.269c0-0.116-0.08-0.197-0.194-0.197h-0.933
	c-0.119,0-0.193,0.081-0.193,0.197v27.357c0,0.119,0.11,0.231,0.233,0.231h11.469c0.119,0,0.198-0.077,0.198-0.194V179.527z
	 M303.055,165.006c0,2.537-2.064,4.605-4.647,4.605h-5.501v-15.42h5.501c2.583,0,4.647,2.029,4.647,4.605V165.006z M304.379,158.797
	c0-3.281-2.649-5.93-5.972-5.93h-6.632c-0.119,0-0.194,0.081-0.194,0.193v27.398c0,0.117,0.075,0.194,0.194,0.194h0.933
	c0.115,0,0.198-0.077,0.198-0.194v-9.521h5.501c3.323,0,5.972-2.69,5.972-5.933V158.797z M283.423,165.006
	c0,2.537-2.073,4.605-4.643,4.605h-5.51v-15.42h5.51c2.57,0,4.643,2.029,4.643,4.605V165.006z M284.743,158.797
	c0-3.281-2.649-5.93-5.963-5.93h-6.641c-0.115,0-0.194,0.081-0.194,0.193v27.398c0,0.117,0.079,0.194,0.194,0.194h0.933
	c0.119,0,0.198-0.077,0.198-0.194v-9.521h5.51c3.314,0,5.963-2.69,5.963-5.933V158.797z M262.462,169.611h-9.761l4.058-15.42h1.642
	L262.462,169.611z M263.98,170.157l-4.524-17.132c-0.04-0.117-0.119-0.158-0.233-0.158h-3.283c-0.119,0-0.194,0.041-0.233,0.158
	l-4.524,17.132v10.302c0,0.117,0.075,0.194,0.194,0.194h0.933c0.115,0,0.194-0.077,0.194-0.194v-9.521h10.157v9.521
	c0,0.117,0.075,0.194,0.194,0.194h0.933c0.114,0,0.193-0.077,0.193-0.194V170.157z"/>
</svg>
